<?xml version="1.0" encoding="UTF-8" standalone="no"?>
<!DOCTYPE svg PUBLIC "-//W3C//DTD SVG 1.1//EN"
 "http://www.w3.org/Graphics/SVG/1.1/DTD/svg11.dtd">
<!-- Generated by graphviz version 8.0.1 (20230327.1645)
 -->
<!-- Pages: 1 -->
<svg width="596pt" height="476pt"
 viewBox="0.00 0.00 595.50 476.00" xmlns="http://www.w3.org/2000/svg" xmlns:xlink="http://www.w3.org/1999/xlink">
<g id="graph0" class="graph" transform="scale(1 1) rotate(0) translate(4 472)">
<polygon fill="white" stroke="none" points="-4,4 -4,-472 591.5,-472 591.5,4 -4,4"/>
<!-- [root] aws_instance.foo (expand) -->
<g id="node1" class="node">
<title>[root] aws_instance.foo (expand)</title>
<polygon fill="none" stroke="black" points="157.5,-324 47.5,-324 47.5,-288 157.5,-288 157.5,-324"/>
<text text-anchor="middle" x="102.5" y="-302.3" font-family="Times,serif" font-size="14.00">aws_instance.foo</text>
</g>
<!-- [root] aws_network_interface.foo (expand) -->
<g id="node3" class="node">
<title>[root] aws_network_interface.foo (expand)</title>
<polygon fill="none" stroke="black" points="184.5,-252 20.5,-252 20.5,-216 184.5,-216 184.5,-252"/>
<text text-anchor="middle" x="102.5" y="-230.3" font-family="Times,serif" font-size="14.00">aws_network_interface.foo</text>
</g>
<!-- [root] aws_instance.foo (expand)&#45;&gt;[root] aws_network_interface.foo (expand) -->
<g id="edge1" class="edge">
<title>[root] aws_instance.foo (expand)&#45;&gt;[root] aws_network_interface.foo (expand)</title>
<path fill="none" stroke="black" d="M102.5,-287.7C102.5,-280.24 102.5,-271.32 102.5,-262.97"/>
<polygon fill="black" stroke="black" points="106,-263.1 102.5,-253.1 99,-263.1 106,-263.1"/>
</g>
<!-- [root] aws_internet_gateway.foo (expand) -->
<g id="node2" class="node">
<title>[root] aws_internet_gateway.foo (expand)</title>
<polygon fill="none" stroke="black" points="481.5,-180 323.5,-180 323.5,-144 481.5,-144 481.5,-180"/>
<text text-anchor="middle" x="402.5" y="-158.3" font-family="Times,serif" font-size="14.00">aws_internet_gateway.foo</text>
</g>
<!-- [root] aws_vpc.foo (expand) -->
<g id="node10" class="node">
<title>[root] aws_vpc.foo (expand)</title>
<polygon fill="none" stroke="black" points="361.5,-108 275.5,-108 275.5,-72 361.5,-72 361.5,-108"/>
<text text-anchor="middle" x="318.5" y="-86.3" font-family="Times,serif" font-size="14.00">aws_vpc.foo</text>
</g>
<!-- [root] aws_internet_gateway.foo (expand)&#45;&gt;[root] aws_vpc.foo (expand) -->
<g id="edge2" class="edge">
<title>[root] aws_internet_gateway.foo (expand)&#45;&gt;[root] aws_vpc.foo (expand)</title>
<path fill="none" stroke="black" d="M381.74,-143.7C371.44,-135.11 358.83,-124.61 347.59,-115.24"/>
<polygon fill="black" stroke="black" points="350.24,-112.06 340.32,-108.35 345.76,-117.44 350.24,-112.06"/>
</g>
<!-- [root] aws_security_group.foo (expand) -->
<g id="node7" class="node">
<title>[root] aws_security_group.foo (expand)</title>
<polygon fill="none" stroke="black" points="147,-180 0,-180 0,-144 147,-144 147,-180"/>
<text text-anchor="middle" x="73.5" y="-158.3" font-family="Times,serif" font-size="14.00">aws_security_group.foo</text>
</g>
<!-- [root] aws_network_interface.foo (expand)&#45;&gt;[root] aws_security_group.foo (expand) -->
<g id="edge3" class="edge">
<title>[root] aws_network_interface.foo (expand)&#45;&gt;[root] aws_security_group.foo (expand)</title>
<path fill="none" stroke="black" d="M95.33,-215.7C92.14,-207.98 88.3,-198.71 84.73,-190.11"/>
<polygon fill="black" stroke="black" points="87.65,-189 80.59,-181.1 81.18,-191.68 87.65,-189"/>
</g>
<!-- [root] aws_subnet.foo&#45;public (expand) -->
<g id="node9" class="node">
<title>[root] aws_subnet.foo&#45;public (expand)</title>
<polygon fill="none" stroke="black" points="305.5,-180 165.5,-180 165.5,-144 305.5,-144 305.5,-180"/>
<text text-anchor="middle" x="235.5" y="-158.3" font-family="Times,serif" font-size="14.00">aws_subnet.foo&#45;public</text>
</g>
<!-- [root] aws_network_interface.foo (expand)&#45;&gt;[root] aws_subnet.foo&#45;public (expand) -->
<g id="edge4" class="edge">
<title>[root] aws_network_interface.foo (expand)&#45;&gt;[root] aws_subnet.foo&#45;public (expand)</title>
<path fill="none" stroke="black" d="M135.72,-215.52C153.07,-206.39 174.49,-195.11 193.03,-185.35"/>
<polygon fill="black" stroke="black" points="194.49,-188.02 201.7,-180.26 191.23,-181.82 194.49,-188.02"/>
</g>
<!-- [root] aws_route_table.foo (expand) -->
<g id="node4" class="node">
<title>[root] aws_route_table.foo (expand)</title>
<polygon fill="none" stroke="black" points="420,-252 293,-252 293,-216 420,-216 420,-252"/>
<text text-anchor="middle" x="356.5" y="-230.3" font-family="Times,serif" font-size="14.00">aws_route_table.foo</text>
</g>
<!-- [root] aws_route_table.foo (expand)&#45;&gt;[root] aws_internet_gateway.foo (expand) -->
<g id="edge5" class="edge">
<title>[root] aws_route_table.foo (expand)&#45;&gt;[root] aws_internet_gateway.foo (expand)</title>
<path fill="none" stroke="black" d="M367.87,-215.7C373.11,-207.73 379.43,-198.1 385.24,-189.26"/>
<polygon fill="black" stroke="black" points="388.69,-191.38 391.26,-181.1 382.84,-187.54 388.69,-191.38"/>
</g>
<!-- [root] aws_route_table_association.foo (expand) -->
<g id="node5" class="node">
<title>[root] aws_route_table_association.foo (expand)</title>
<polygon fill="none" stroke="black" points="369.5,-324 175.5,-324 175.5,-288 369.5,-288 369.5,-324"/>
<text text-anchor="middle" x="272.5" y="-302.3" font-family="Times,serif" font-size="14.00">aws_route_table_association.foo</text>
</g>
<!-- [root] aws_route_table_association.foo (expand)&#45;&gt;[root] aws_route_table.foo (expand) -->
<g id="edge6" class="edge">
<title>[root] aws_route_table_association.foo (expand)&#45;&gt;[root] aws_route_table.foo (expand)</title>
<path fill="none" stroke="black" d="M293.26,-287.7C303.56,-279.11 316.17,-268.61 327.41,-259.24"/>
<polygon fill="black" stroke="black" points="329.24,-261.44 334.68,-252.35 324.76,-256.06 329.24,-261.44"/>
</g>
<!-- [root] aws_route_table_association.foo (expand)&#45;&gt;[root] aws_subnet.foo&#45;public (expand) -->
<g id="edge7" class="edge">
<title>[root] aws_route_table_association.foo (expand)&#45;&gt;[root] aws_subnet.foo&#45;public (expand)</title>
<path fill="none" stroke="black" d="M267.96,-287.59C261.66,-263.4 250.19,-219.36 242.71,-190.65"/>
<polygon fill="black" stroke="black" points="245.87,-189.91 239.96,-181.11 239.09,-191.67 245.87,-189.91"/>
</g>
<!-- [root] aws_route_table_association.foo1 (expand) -->
<g id="node6" class="node">
<title>[root] aws_route_table_association.foo1 (expand)</title>
<polygon fill="none" stroke="black" points="587.5,-324 387.5,-324 387.5,-288 587.5,-288 587.5,-324"/>
<text text-anchor="middle" x="487.5" y="-302.3" font-family="Times,serif" font-size="14.00">aws_route_table_association.foo1</text>
</g>
<!-- [root] aws_route_table_association.foo1 (expand)&#45;&gt;[root] aws_route_table.foo (expand) -->
<g id="edge8" class="edge">
<title>[root] aws_route_table_association.foo1 (expand)&#45;&gt;[root] aws_route_table.foo (expand)</title>
<path fill="none" stroke="black" d="M454.78,-287.52C437.69,-278.39 416.6,-267.11 398.33,-257.35"/>
<polygon fill="black" stroke="black" points="400.27,-253.89 389.8,-252.26 396.97,-260.06 400.27,-253.89"/>
</g>
<!-- [root] aws_subnet.foo&#45;private (expand) -->
<g id="node8" class="node">
<title>[root] aws_subnet.foo&#45;private (expand)</title>
<polygon fill="none" stroke="black" points="581,-252 438,-252 438,-216 581,-216 581,-252"/>
<text text-anchor="middle" x="509.5" y="-230.3" font-family="Times,serif" font-size="14.00">aws_subnet.foo&#45;private</text>
</g>
<!-- [root] aws_route_table_association.foo1 (expand)&#45;&gt;[root] aws_subnet.foo&#45;private (expand) -->
<g id="edge9" class="edge">
<title>[root] aws_route_table_association.foo1 (expand)&#45;&gt;[root] aws_subnet.foo&#45;private (expand)</title>
<path fill="none" stroke="black" d="M492.94,-287.7C495.34,-280.07 498.21,-270.92 500.89,-262.4"/>
<polygon fill="black" stroke="black" points="504.47,-263.69 504.12,-253.1 497.79,-261.59 504.47,-263.69"/>
</g>
<!-- [root] aws_security_group.foo (expand)&#45;&gt;[root] aws_vpc.foo (expand) -->
<g id="edge10" class="edge">
<title>[root] aws_security_group.foo (expand)&#45;&gt;[root] aws_vpc.foo (expand)</title>
<path fill="none" stroke="black" d="M134.69,-143.52C174.59,-132.12 226.19,-117.37 264.55,-106.41"/>
<polygon fill="black" stroke="black" points="265.35,-109.54 274,-103.43 263.43,-102.81 265.35,-109.54"/>
</g>
<!-- [root] aws_subnet.foo&#45;private (expand)&#45;&gt;[root] aws_vpc.foo (expand) -->
<g id="edge11" class="edge">
<title>[root] aws_subnet.foo&#45;private (expand)&#45;&gt;[root] aws_vpc.foo (expand)</title>
<path fill="none" stroke="black" d="M510.66,-215.62C511,-195.79 508.42,-163.58 490.5,-144 460.42,-111.13 410.49,-98.43 372.15,-93.64"/>
<polygon fill="black" stroke="black" points="372.99,-90.1 362.67,-92.48 372.22,-97.06 372.99,-90.1"/>
</g>
<!-- [root] aws_subnet.foo&#45;public (expand)&#45;&gt;[root] aws_vpc.foo (expand) -->
<g id="edge12" class="edge">
<title>[root] aws_subnet.foo&#45;public (expand)&#45;&gt;[root] aws_vpc.foo (expand)</title>
<path fill="none" stroke="black" d="M256.02,-143.7C266.19,-135.11 278.65,-124.61 289.76,-115.24"/>
<polygon fill="black" stroke="black" points="291.54,-117.47 296.93,-108.35 287.03,-112.12 291.54,-117.47"/>
</g>
<!-- [root] provider[&quot;registry.terraform.io/hashicorp/aws&quot;] -->
<g id="node11" class="node">
<title>[root] provider[&quot;registry.terraform.io/hashicorp/aws&quot;]</title>
<polygon fill="none" stroke="black" points="318.5,-36 65.96,-18 318.5,0 571.04,-18 318.5,-36"/>
<text text-anchor="middle" x="318.5" y="-14.3" font-family="Times,serif" font-size="14.00">provider[&quot;registry.terraform.io/hashicorp/aws&quot;]</text>
</g>
<!-- [root] aws_vpc.foo (expand)&#45;&gt;[root] provider[&quot;registry.terraform.io/hashicorp/aws&quot;] -->
<g id="edge13" class="edge">
<title>[root] aws_vpc.foo (expand)&#45;&gt;[root] provider[&quot;registry.terraform.io/hashicorp/aws&quot;]</title>
<path fill="none" stroke="black" d="M318.5,-71.7C318.5,-64.24 318.5,-55.32 318.5,-46.97"/>
<polygon fill="black" stroke="black" points="322,-47.1 318.5,-37.1 315,-47.1 322,-47.1"/>
</g>
<!-- [root] provider[&quot;registry.terraform.io/hashicorp/aws&quot;] (close) -->
<g id="node12" class="node">
<title>[root] provider[&quot;registry.terraform.io/hashicorp/aws&quot;] (close)</title>
<ellipse fill="none" stroke="black" cx="272.5" cy="-378" rx="227.46" ry="18"/>
<text text-anchor="middle" x="272.5" y="-374.3" font-family="Times,serif" font-size="14.00">[root] provider[&quot;registry.terraform.io/hashicorp/aws&quot;] (close)</text>
</g>
<!-- [root] provider[&quot;registry.terraform.io/hashicorp/aws&quot;] (close)&#45;&gt;[root] aws_instance.foo (expand) -->
<g id="edge14" class="edge">
<title>[root] provider[&quot;registry.terraform.io/hashicorp/aws&quot;] (close)&#45;&gt;[root] aws_instance.foo (expand)</title>
<path fill="none" stroke="black" d="M230.91,-359.88C207.93,-350.41 179.16,-338.57 154.69,-328.49"/>
<polygon fill="black" stroke="black" points="156.42,-325 145.84,-324.43 153.75,-331.48 156.42,-325"/>
</g>
<!-- [root] provider[&quot;registry.terraform.io/hashicorp/aws&quot;] (close)&#45;&gt;[root] aws_route_table_association.foo (expand) -->
<g id="edge15" class="edge">
<title>[root] provider[&quot;registry.terraform.io/hashicorp/aws&quot;] (close)&#45;&gt;[root] aws_route_table_association.foo (expand)</title>
<path fill="none" stroke="black" d="M272.5,-359.7C272.5,-352.24 272.5,-343.32 272.5,-334.97"/>
<polygon fill="black" stroke="black" points="276,-335.1 272.5,-325.1 269,-335.1 276,-335.1"/>
</g>
<!-- [root] provider[&quot;registry.terraform.io/hashicorp/aws&quot;] (close)&#45;&gt;[root] aws_route_table_association.foo1 (expand) -->
<g id="edge16" class="edge">
<title>[root] provider[&quot;registry.terraform.io/hashicorp/aws&quot;] (close)&#45;&gt;[root] aws_route_table_association.foo1 (expand)</title>
<path fill="none" stroke="black" d="M324.55,-360.05C354.49,-350.31 392.33,-337.98 424.01,-327.67"/>
<polygon fill="black" stroke="black" points="424.64,-330.82 433.06,-324.4 422.47,-324.17 424.64,-330.82"/>
</g>
<!-- [root] root -->
<g id="node13" class="node">
<title>[root] root</title>
<ellipse fill="none" stroke="black" cx="272.5" cy="-450" rx="47.39" ry="18"/>
<text text-anchor="middle" x="272.5" y="-446.3" font-family="Times,serif" font-size="14.00">[root] root</text>
</g>
<!-- [root] root&#45;&gt;[root] provider[&quot;registry.terraform.io/hashicorp/aws&quot;] (close) -->
<g id="edge17" class="edge">
<title>[root] root&#45;&gt;[root] provider[&quot;registry.terraform.io/hashicorp/aws&quot;] (close)</title>
<path fill="none" stroke="black" d="M272.5,-431.7C272.5,-424.24 272.5,-415.32 272.5,-406.97"/>
<polygon fill="black" stroke="black" points="276,-407.1 272.5,-397.1 269,-407.1 276,-407.1"/>
</g>
</g>
</svg>
