<?xml version="1.0" encoding="UTF-8" standalone="no"?>
<!DOCTYPE svg PUBLIC "-//W3C//DTD SVG 1.1//EN"
 "http://www.w3.org/Graphics/SVG/1.1/DTD/svg11.dtd">
<!-- Generated by graphviz version 8.0.1 (20230327.1645)
 -->
<!-- Pages: 1 -->
<svg width="1688pt" height="476pt"
 viewBox="0.00 0.00 1688.00 476.00" xmlns="http://www.w3.org/2000/svg" xmlns:xlink="http://www.w3.org/1999/xlink">
<g id="graph0" class="graph" transform="scale(1 1) rotate(0) translate(4 472)">
<polygon fill="white" stroke="none" points="-4,4 -4,-472 1684,-472 1684,4 -4,4"/>
<!-- [root] aws_instance.foo (expand) -->
<g id="node1" class="node">
<title>[root] aws_instance.foo (expand)</title>
<polygon fill="none" stroke="black" points="568.5,-324 458.5,-324 458.5,-288 568.5,-288 568.5,-324"/>
<text text-anchor="middle" x="513.5" y="-302.3" font-family="Times,serif" font-size="14.00">aws_instance.foo</text>
</g>
<!-- [root] aws_network_interface.foo (expand) -->
<g id="node5" class="node">
<title>[root] aws_network_interface.foo (expand)</title>
<polygon fill="none" stroke="black" points="582.5,-252 418.5,-252 418.5,-216 582.5,-216 582.5,-252"/>
<text text-anchor="middle" x="500.5" y="-230.3" font-family="Times,serif" font-size="14.00">aws_network_interface.foo</text>
</g>
<!-- [root] aws_instance.foo (expand)&#45;&gt;[root] aws_network_interface.foo (expand) -->
<g id="edge1" class="edge">
<title>[root] aws_instance.foo (expand)&#45;&gt;[root] aws_network_interface.foo (expand)</title>
<path fill="none" stroke="black" d="M510.29,-287.7C508.89,-280.15 507.21,-271.12 505.64,-262.68"/>
<polygon fill="black" stroke="black" points="508.94,-262.3 503.68,-253.1 502.06,-263.58 508.94,-262.3"/>
</g>
<!-- [root] aws_instance.foo&#45;2 (expand) -->
<g id="node2" class="node">
<title>[root] aws_instance.foo&#45;2 (expand)</title>
<polygon fill="none" stroke="black" points="1037.5,-324 915.5,-324 915.5,-288 1037.5,-288 1037.5,-324"/>
<text text-anchor="middle" x="976.5" y="-302.3" font-family="Times,serif" font-size="14.00">aws_instance.foo&#45;2</text>
</g>
<!-- [root] aws_key_pair.foo (expand) -->
<g id="node4" class="node">
<title>[root] aws_key_pair.foo (expand)</title>
<polygon fill="none" stroke="black" points="1220,-252 1107,-252 1107,-216 1220,-216 1220,-252"/>
<text text-anchor="middle" x="1163.5" y="-230.3" font-family="Times,serif" font-size="14.00">aws_key_pair.foo</text>
</g>
<!-- [root] aws_instance.foo&#45;2 (expand)&#45;&gt;[root] aws_key_pair.foo (expand) -->
<g id="edge2" class="edge">
<title>[root] aws_instance.foo&#45;2 (expand)&#45;&gt;[root] aws_key_pair.foo (expand)</title>
<path fill="none" stroke="black" d="M1023.21,-287.52C1048.63,-278 1080.26,-266.16 1107.06,-256.13"/>
<polygon fill="black" stroke="black" points="1107.93,-259.17 1116.07,-252.38 1105.47,-252.61 1107.93,-259.17"/>
</g>
<!-- [root] aws_network_interface.foo&#45;2 (expand) -->
<g id="node6" class="node">
<title>[root] aws_network_interface.foo&#45;2 (expand)</title>
<polygon fill="none" stroke="black" points="1064.5,-252 888.5,-252 888.5,-216 1064.5,-216 1064.5,-252"/>
<text text-anchor="middle" x="976.5" y="-230.3" font-family="Times,serif" font-size="14.00">aws_network_interface.foo&#45;2</text>
</g>
<!-- [root] aws_instance.foo&#45;2 (expand)&#45;&gt;[root] aws_network_interface.foo&#45;2 (expand) -->
<g id="edge3" class="edge">
<title>[root] aws_instance.foo&#45;2 (expand)&#45;&gt;[root] aws_network_interface.foo&#45;2 (expand)</title>
<path fill="none" stroke="black" d="M976.5,-287.7C976.5,-280.24 976.5,-271.32 976.5,-262.97"/>
<polygon fill="black" stroke="black" points="980,-263.1 976.5,-253.1 973,-263.1 980,-263.1"/>
</g>
<!-- [root] aws_internet_gateway.foo (expand) -->
<g id="node3" class="node">
<title>[root] aws_internet_gateway.foo (expand)</title>
<polygon fill="none" stroke="black" points="250.5,-180 92.5,-180 92.5,-144 250.5,-144 250.5,-180"/>
<text text-anchor="middle" x="171.5" y="-158.3" font-family="Times,serif" font-size="14.00">aws_internet_gateway.foo</text>
</g>
<!-- [root] aws_vpc.foo (expand) -->
<g id="node17" class="node">
<title>[root] aws_vpc.foo (expand)</title>
<polygon fill="none" stroke="black" points="462.5,-108 376.5,-108 376.5,-72 462.5,-72 462.5,-108"/>
<text text-anchor="middle" x="419.5" y="-86.3" font-family="Times,serif" font-size="14.00">aws_vpc.foo</text>
</g>
<!-- [root] aws_internet_gateway.foo (expand)&#45;&gt;[root] aws_vpc.foo (expand) -->
<g id="edge4" class="edge">
<title>[root] aws_internet_gateway.foo (expand)&#45;&gt;[root] aws_vpc.foo (expand)</title>
<path fill="none" stroke="black" d="M233.44,-143.52C274.27,-131.99 327.19,-117.06 366.15,-106.06"/>
<polygon fill="black" stroke="black" points="366.56,-109.3 375.24,-103.21 364.66,-102.56 366.56,-109.3"/>
</g>
<!-- [root] provider[&quot;registry.terraform.io/hashicorp/aws&quot;] -->
<g id="node20" class="node">
<title>[root] provider[&quot;registry.terraform.io/hashicorp/aws&quot;]</title>
<polygon fill="none" stroke="black" points="884.5,-36 631.96,-18 884.5,0 1137.04,-18 884.5,-36"/>
<text text-anchor="middle" x="884.5" y="-14.3" font-family="Times,serif" font-size="14.00">provider[&quot;registry.terraform.io/hashicorp/aws&quot;]</text>
</g>
<!-- [root] aws_key_pair.foo (expand)&#45;&gt;[root] provider[&quot;registry.terraform.io/hashicorp/aws&quot;] -->
<g id="edge5" class="edge">
<title>[root] aws_key_pair.foo (expand)&#45;&gt;[root] provider[&quot;registry.terraform.io/hashicorp/aws&quot;]</title>
<path fill="none" stroke="black" d="M1164.12,-215.73C1163.93,-196.29 1160.81,-164.74 1144.5,-144 1097.84,-84.67 1016.01,-51.88 956.59,-34.94"/>
<polygon fill="black" stroke="black" points="957.72,-31.34 947.15,-32.05 955.86,-38.09 957.72,-31.34"/>
</g>
<!-- [root] tls_private_key.foo (expand) -->
<g id="node22" class="node">
<title>[root] tls_private_key.foo (expand)</title>
<polygon fill="none" stroke="black" points="1313,-180 1192,-180 1192,-144 1313,-144 1313,-180"/>
<text text-anchor="middle" x="1252.5" y="-158.3" font-family="Times,serif" font-size="14.00">tls_private_key.foo</text>
</g>
<!-- [root] aws_key_pair.foo (expand)&#45;&gt;[root] tls_private_key.foo (expand) -->
<g id="edge6" class="edge">
<title>[root] aws_key_pair.foo (expand)&#45;&gt;[root] tls_private_key.foo (expand)</title>
<path fill="none" stroke="black" d="M1185.5,-215.7C1196.52,-207.03 1210.03,-196.4 1222.03,-186.96"/>
<polygon fill="black" stroke="black" points="1223.75,-189.28 1229.44,-180.35 1219.42,-183.78 1223.75,-189.28"/>
</g>
<!-- [root] aws_security_group.foo (expand) -->
<g id="node12" class="node">
<title>[root] aws_security_group.foo (expand)</title>
<polygon fill="none" stroke="black" points="574,-180 427,-180 427,-144 574,-144 574,-180"/>
<text text-anchor="middle" x="500.5" y="-158.3" font-family="Times,serif" font-size="14.00">aws_security_group.foo</text>
</g>
<!-- [root] aws_network_interface.foo (expand)&#45;&gt;[root] aws_security_group.foo (expand) -->
<g id="edge7" class="edge">
<title>[root] aws_network_interface.foo (expand)&#45;&gt;[root] aws_security_group.foo (expand)</title>
<path fill="none" stroke="black" d="M500.5,-215.7C500.5,-208.24 500.5,-199.32 500.5,-190.97"/>
<polygon fill="black" stroke="black" points="504,-191.1 500.5,-181.1 497,-191.1 504,-191.1"/>
</g>
<!-- [root] aws_subnet.foo&#45;public (expand) -->
<g id="node15" class="node">
<title>[root] aws_subnet.foo&#45;public (expand)</title>
<polygon fill="none" stroke="black" points="408.5,-180 268.5,-180 268.5,-144 408.5,-144 408.5,-180"/>
<text text-anchor="middle" x="338.5" y="-158.3" font-family="Times,serif" font-size="14.00">aws_subnet.foo&#45;public</text>
</g>
<!-- [root] aws_network_interface.foo (expand)&#45;&gt;[root] aws_subnet.foo&#45;public (expand) -->
<g id="edge8" class="edge">
<title>[root] aws_network_interface.foo (expand)&#45;&gt;[root] aws_subnet.foo&#45;public (expand)</title>
<path fill="none" stroke="black" d="M460.04,-215.52C438.4,-206.17 411.57,-194.57 388.63,-184.66"/>
<polygon fill="black" stroke="black" points="390.29,-181.14 379.73,-180.38 387.52,-187.56 390.29,-181.14"/>
</g>
<!-- [root] aws_security_group.foo&#45;2 (expand) -->
<g id="node13" class="node">
<title>[root] aws_security_group.foo&#45;2 (expand)</title>
<polygon fill="none" stroke="black" points="1135.5,-180 977.5,-180 977.5,-144 1135.5,-144 1135.5,-180"/>
<text text-anchor="middle" x="1056.5" y="-158.3" font-family="Times,serif" font-size="14.00">aws_security_group.foo&#45;2</text>
</g>
<!-- [root] aws_network_interface.foo&#45;2 (expand)&#45;&gt;[root] aws_security_group.foo&#45;2 (expand) -->
<g id="edge9" class="edge">
<title>[root] aws_network_interface.foo&#45;2 (expand)&#45;&gt;[root] aws_security_group.foo&#45;2 (expand)</title>
<path fill="none" stroke="black" d="M996.28,-215.7C1005.99,-207.2 1017.86,-196.81 1028.48,-187.51"/>
<polygon fill="black" stroke="black" points="1030.45,-189.57 1035.67,-180.35 1025.84,-184.3 1030.45,-189.57"/>
</g>
<!-- [root] aws_subnet.foo2&#45;private (expand) -->
<g id="node16" class="node">
<title>[root] aws_subnet.foo2&#45;private (expand)</title>
<polygon fill="none" stroke="black" points="959.5,-180 809.5,-180 809.5,-144 959.5,-144 959.5,-180"/>
<text text-anchor="middle" x="884.5" y="-158.3" font-family="Times,serif" font-size="14.00">aws_subnet.foo2&#45;private</text>
</g>
<!-- [root] aws_network_interface.foo&#45;2 (expand)&#45;&gt;[root] aws_subnet.foo2&#45;private (expand) -->
<g id="edge10" class="edge">
<title>[root] aws_network_interface.foo&#45;2 (expand)&#45;&gt;[root] aws_subnet.foo2&#45;private (expand)</title>
<path fill="none" stroke="black" d="M953.76,-215.7C942.37,-207.03 928.4,-196.4 915.99,-186.96"/>
<polygon fill="black" stroke="black" points="918.38,-183.62 908.3,-180.35 914.14,-189.19 918.38,-183.62"/>
</g>
<!-- [root] aws_route_table.foo (expand) -->
<g id="node7" class="node">
<title>[root] aws_route_table.foo (expand)</title>
<polygon fill="none" stroke="black" points="303,-252 176,-252 176,-216 303,-216 303,-252"/>
<text text-anchor="middle" x="239.5" y="-230.3" font-family="Times,serif" font-size="14.00">aws_route_table.foo</text>
</g>
<!-- [root] aws_route_table.foo (expand)&#45;&gt;[root] aws_internet_gateway.foo (expand) -->
<g id="edge11" class="edge">
<title>[root] aws_route_table.foo (expand)&#45;&gt;[root] aws_internet_gateway.foo (expand)</title>
<path fill="none" stroke="black" d="M222.69,-215.7C214.54,-207.3 204.6,-197.07 195.65,-187.86"/>
<polygon fill="black" stroke="black" points="198.59,-185.84 189.12,-181.1 193.57,-190.72 198.59,-185.84"/>
</g>
<!-- [root] aws_vpc_peering_connection.foo (expand) -->
<g id="node19" class="node">
<title>[root] aws_vpc_peering_connection.foo (expand)</title>
<polygon fill="none" stroke="black" points="791,-180 592,-180 592,-144 791,-144 791,-180"/>
<text text-anchor="middle" x="691.5" y="-158.3" font-family="Times,serif" font-size="14.00">aws_vpc_peering_connection.foo</text>
</g>
<!-- [root] aws_route_table.foo (expand)&#45;&gt;[root] aws_vpc_peering_connection.foo (expand) -->
<g id="edge12" class="edge">
<title>[root] aws_route_table.foo (expand)&#45;&gt;[root] aws_vpc_peering_connection.foo (expand)</title>
<path fill="none" stroke="black" d="M303.23,-223.25C370,-213.01 478.25,-196.38 581.18,-180.36"/>
<polygon fill="black" stroke="black" points="581.42,-183.71 590.76,-178.71 580.34,-176.79 581.42,-183.71"/>
</g>
<!-- [root] aws_route_table.foo&#45;2 (expand) -->
<g id="node8" class="node">
<title>[root] aws_route_table.foo&#45;2 (expand)</title>
<polygon fill="none" stroke="black" points="760.5,-252 622.5,-252 622.5,-216 760.5,-216 760.5,-252"/>
<text text-anchor="middle" x="691.5" y="-230.3" font-family="Times,serif" font-size="14.00">aws_route_table.foo&#45;2</text>
</g>
<!-- [root] aws_route_table.foo&#45;2 (expand)&#45;&gt;[root] aws_vpc_peering_connection.foo (expand) -->
<g id="edge13" class="edge">
<title>[root] aws_route_table.foo&#45;2 (expand)&#45;&gt;[root] aws_vpc_peering_connection.foo (expand)</title>
<path fill="none" stroke="black" d="M691.5,-215.7C691.5,-208.24 691.5,-199.32 691.5,-190.97"/>
<polygon fill="black" stroke="black" points="695,-191.1 691.5,-181.1 688,-191.1 695,-191.1"/>
</g>
<!-- [root] aws_route_table_association.foo (expand) -->
<g id="node9" class="node">
<title>[root] aws_route_table_association.foo (expand)</title>
<polygon fill="none" stroke="black" points="437.5,-324 243.5,-324 243.5,-288 437.5,-288 437.5,-324"/>
<text text-anchor="middle" x="340.5" y="-302.3" font-family="Times,serif" font-size="14.00">aws_route_table_association.foo</text>
</g>
<!-- [root] aws_route_table_association.foo (expand)&#45;&gt;[root] aws_route_table.foo (expand) -->
<g id="edge14" class="edge">
<title>[root] aws_route_table_association.foo (expand)&#45;&gt;[root] aws_route_table.foo (expand)</title>
<path fill="none" stroke="black" d="M315.27,-287.52C302.52,-278.68 286.88,-267.84 273.12,-258.3"/>
<polygon fill="black" stroke="black" points="275.62,-255.08 265.4,-252.26 271.63,-260.83 275.62,-255.08"/>
</g>
<!-- [root] aws_route_table_association.foo (expand)&#45;&gt;[root] aws_subnet.foo&#45;public (expand) -->
<g id="edge15" class="edge">
<title>[root] aws_route_table_association.foo (expand)&#45;&gt;[root] aws_subnet.foo&#45;public (expand)</title>
<path fill="none" stroke="black" d="M340.25,-287.59C339.92,-263.5 339.3,-219.75 338.89,-191.03"/>
<polygon fill="black" stroke="black" points="342.38,-191.06 338.74,-181.11 335.38,-191.16 342.38,-191.06"/>
</g>
<!-- [root] aws_route_table_association.foo&#45;2 (expand) -->
<g id="node10" class="node">
<title>[root] aws_route_table_association.foo&#45;2 (expand)</title>
<polygon fill="none" stroke="black" points="794,-324 589,-324 589,-288 794,-288 794,-324"/>
<text text-anchor="middle" x="691.5" y="-302.3" font-family="Times,serif" font-size="14.00">aws_route_table_association.foo&#45;2</text>
</g>
<!-- [root] aws_route_table_association.foo&#45;2 (expand)&#45;&gt;[root] aws_route_table.foo&#45;2 (expand) -->
<g id="edge16" class="edge">
<title>[root] aws_route_table_association.foo&#45;2 (expand)&#45;&gt;[root] aws_route_table.foo&#45;2 (expand)</title>
<path fill="none" stroke="black" d="M691.5,-287.7C691.5,-280.24 691.5,-271.32 691.5,-262.97"/>
<polygon fill="black" stroke="black" points="695,-263.1 691.5,-253.1 688,-263.1 695,-263.1"/>
</g>
<!-- [root] aws_route_table_association.foo&#45;2 (expand)&#45;&gt;[root] aws_subnet.foo2&#45;private (expand) -->
<g id="edge17" class="edge">
<title>[root] aws_route_table_association.foo&#45;2 (expand)&#45;&gt;[root] aws_subnet.foo2&#45;private (expand)</title>
<path fill="none" stroke="black" d="M717.78,-287.73C733.04,-277.56 752.54,-264.31 769.5,-252 798.85,-230.7 831.47,-205.28 854.45,-187.07"/>
<polygon fill="black" stroke="black" points="856.11,-189.43 861.76,-180.47 851.75,-183.95 856.11,-189.43"/>
</g>
<!-- [root] aws_route_table_association.foo1 (expand) -->
<g id="node11" class="node">
<title>[root] aws_route_table_association.foo1 (expand)</title>
<polygon fill="none" stroke="black" points="225.5,-324 25.5,-324 25.5,-288 225.5,-288 225.5,-324"/>
<text text-anchor="middle" x="125.5" y="-302.3" font-family="Times,serif" font-size="14.00">aws_route_table_association.foo1</text>
</g>
<!-- [root] aws_route_table_association.foo1 (expand)&#45;&gt;[root] aws_route_table.foo (expand) -->
<g id="edge18" class="edge">
<title>[root] aws_route_table_association.foo1 (expand)&#45;&gt;[root] aws_route_table.foo (expand)</title>
<path fill="none" stroke="black" d="M153.97,-287.52C168.64,-278.51 186.7,-267.42 202.43,-257.76"/>
<polygon fill="black" stroke="black" points="203.7,-260.48 210.39,-252.26 200.04,-254.51 203.7,-260.48"/>
</g>
<!-- [root] aws_subnet.foo&#45;private (expand) -->
<g id="node14" class="node">
<title>[root] aws_subnet.foo&#45;private (expand)</title>
<polygon fill="none" stroke="black" points="143,-252 0,-252 0,-216 143,-216 143,-252"/>
<text text-anchor="middle" x="71.5" y="-230.3" font-family="Times,serif" font-size="14.00">aws_subnet.foo&#45;private</text>
</g>
<!-- [root] aws_route_table_association.foo1 (expand)&#45;&gt;[root] aws_subnet.foo&#45;private (expand) -->
<g id="edge19" class="edge">
<title>[root] aws_route_table_association.foo1 (expand)&#45;&gt;[root] aws_subnet.foo&#45;private (expand)</title>
<path fill="none" stroke="black" d="M112.15,-287.7C105.87,-279.56 98.26,-269.69 91.33,-260.7"/>
<polygon fill="black" stroke="black" points="93.57,-258.88 84.69,-253.1 88.03,-263.16 93.57,-258.88"/>
</g>
<!-- [root] aws_security_group.foo (expand)&#45;&gt;[root] aws_vpc.foo (expand) -->
<g id="edge20" class="edge">
<title>[root] aws_security_group.foo (expand)&#45;&gt;[root] aws_vpc.foo (expand)</title>
<path fill="none" stroke="black" d="M480.48,-143.7C470.64,-135.2 458.63,-124.81 447.87,-115.51"/>
<polygon fill="black" stroke="black" points="450.43,-112.24 440.57,-108.35 445.85,-117.53 450.43,-112.24"/>
</g>
<!-- [root] aws_vpc.foo&#45;2 (expand) -->
<g id="node18" class="node">
<title>[root] aws_vpc.foo&#45;2 (expand)</title>
<polygon fill="none" stroke="black" points="933,-108 836,-108 836,-72 933,-72 933,-108"/>
<text text-anchor="middle" x="884.5" y="-86.3" font-family="Times,serif" font-size="14.00">aws_vpc.foo&#45;2</text>
</g>
<!-- [root] aws_security_group.foo&#45;2 (expand)&#45;&gt;[root] aws_vpc.foo&#45;2 (expand) -->
<g id="edge21" class="edge">
<title>[root] aws_security_group.foo&#45;2 (expand)&#45;&gt;[root] aws_vpc.foo&#45;2 (expand)</title>
<path fill="none" stroke="black" d="M1013.54,-143.52C990.47,-134.13 961.83,-122.47 937.39,-112.53"/>
<polygon fill="black" stroke="black" points="938.79,-108.91 928.21,-108.38 936.15,-115.39 938.79,-108.91"/>
</g>
<!-- [root] aws_subnet.foo&#45;private (expand)&#45;&gt;[root] aws_vpc.foo (expand) -->
<g id="edge22" class="edge">
<title>[root] aws_subnet.foo&#45;private (expand)&#45;&gt;[root] aws_vpc.foo (expand)</title>
<path fill="none" stroke="black" d="M68.33,-215.68C65.75,-195.59 65.08,-162.84 83.5,-144 121.68,-104.95 280.06,-94.66 365.04,-91.96"/>
<polygon fill="black" stroke="black" points="365.13,-95.43 375.02,-91.64 364.93,-88.43 365.13,-95.43"/>
</g>
<!-- [root] aws_subnet.foo&#45;public (expand)&#45;&gt;[root] aws_vpc.foo (expand) -->
<g id="edge23" class="edge">
<title>[root] aws_subnet.foo&#45;public (expand)&#45;&gt;[root] aws_vpc.foo (expand)</title>
<path fill="none" stroke="black" d="M358.52,-143.7C368.36,-135.2 380.37,-124.81 391.13,-115.51"/>
<polygon fill="black" stroke="black" points="393.15,-117.53 398.43,-108.35 388.57,-112.24 393.15,-117.53"/>
</g>
<!-- [root] aws_subnet.foo2&#45;private (expand)&#45;&gt;[root] aws_vpc.foo&#45;2 (expand) -->
<g id="edge24" class="edge">
<title>[root] aws_subnet.foo2&#45;private (expand)&#45;&gt;[root] aws_vpc.foo&#45;2 (expand)</title>
<path fill="none" stroke="black" d="M884.5,-143.7C884.5,-136.24 884.5,-127.32 884.5,-118.97"/>
<polygon fill="black" stroke="black" points="888,-119.1 884.5,-109.1 881,-119.1 888,-119.1"/>
</g>
<!-- [root] aws_vpc.foo (expand)&#45;&gt;[root] provider[&quot;registry.terraform.io/hashicorp/aws&quot;] -->
<g id="edge25" class="edge">
<title>[root] aws_vpc.foo (expand)&#45;&gt;[root] provider[&quot;registry.terraform.io/hashicorp/aws&quot;]</title>
<path fill="none" stroke="black" d="M462.83,-82.48C538.31,-71.11 695.38,-47.47 795.06,-32.46"/>
<polygon fill="black" stroke="black" points="795.36,-35.81 804.72,-30.86 794.31,-28.89 795.36,-35.81"/>
</g>
<!-- [root] aws_vpc.foo&#45;2 (expand)&#45;&gt;[root] provider[&quot;registry.terraform.io/hashicorp/aws&quot;] -->
<g id="edge26" class="edge">
<title>[root] aws_vpc.foo&#45;2 (expand)&#45;&gt;[root] provider[&quot;registry.terraform.io/hashicorp/aws&quot;]</title>
<path fill="none" stroke="black" d="M884.5,-71.7C884.5,-64.24 884.5,-55.32 884.5,-46.97"/>
<polygon fill="black" stroke="black" points="888,-47.1 884.5,-37.1 881,-47.1 888,-47.1"/>
</g>
<!-- [root] aws_vpc_peering_connection.foo (expand)&#45;&gt;[root] aws_vpc.foo (expand) -->
<g id="edge27" class="edge">
<title>[root] aws_vpc_peering_connection.foo (expand)&#45;&gt;[root] aws_vpc.foo (expand)</title>
<path fill="none" stroke="black" d="M623.56,-143.52C577.15,-131.57 516.47,-115.96 473.38,-104.87"/>
<polygon fill="black" stroke="black" points="474.38,-101.25 463.82,-102.15 472.64,-108.03 474.38,-101.25"/>
</g>
<!-- [root] aws_vpc_peering_connection.foo (expand)&#45;&gt;[root] aws_vpc.foo&#45;2 (expand) -->
<g id="edge28" class="edge">
<title>[root] aws_vpc_peering_connection.foo (expand)&#45;&gt;[root] aws_vpc.foo&#45;2 (expand)</title>
<path fill="none" stroke="black" d="M739.7,-143.52C765.94,-134 798.59,-122.16 826.25,-112.13"/>
<polygon fill="black" stroke="black" points="827.37,-115.08 835.58,-108.38 824.98,-108.5 827.37,-115.08"/>
</g>
<!-- [root] provider[&quot;registry.terraform.io/hashicorp/tls&quot;] -->
<g id="node21" class="node">
<title>[root] provider[&quot;registry.terraform.io/hashicorp/tls&quot;]</title>
<polygon fill="none" stroke="black" points="1435.5,-108 1191.01,-90 1435.5,-72 1679.99,-90 1435.5,-108"/>
<text text-anchor="middle" x="1435.5" y="-86.3" font-family="Times,serif" font-size="14.00">provider[&quot;registry.terraform.io/hashicorp/tls&quot;]</text>
</g>
<!-- [root] tls_private_key.foo (expand)&#45;&gt;[root] provider[&quot;registry.terraform.io/hashicorp/tls&quot;] -->
<g id="edge37" class="edge">
<title>[root] tls_private_key.foo (expand)&#45;&gt;[root] provider[&quot;registry.terraform.io/hashicorp/tls&quot;]</title>
<path fill="none" stroke="black" d="M1298.21,-143.52C1325.24,-133.18 1359.46,-120.08 1386.98,-109.56"/>
<polygon fill="black" stroke="black" points="1388.08,-112.51 1396.17,-105.66 1385.57,-105.97 1388.08,-112.51"/>
</g>
<!-- [root] provider[&quot;registry.terraform.io/hashicorp/aws&quot;] (close) -->
<g id="node23" class="node">
<title>[root] provider[&quot;registry.terraform.io/hashicorp/aws&quot;] (close)</title>
<ellipse fill="none" stroke="black" cx="601.5" cy="-378" rx="227.46" ry="18"/>
<text text-anchor="middle" x="601.5" y="-374.3" font-family="Times,serif" font-size="14.00">[root] provider[&quot;registry.terraform.io/hashicorp/aws&quot;] (close)</text>
</g>
<!-- [root] provider[&quot;registry.terraform.io/hashicorp/aws&quot;] (close)&#45;&gt;[root] aws_instance.foo (expand) -->
<g id="edge29" class="edge">
<title>[root] provider[&quot;registry.terraform.io/hashicorp/aws&quot;] (close)&#45;&gt;[root] aws_instance.foo (expand)</title>
<path fill="none" stroke="black" d="M579.75,-359.7C568.85,-351.03 555.49,-340.4 543.62,-330.96"/>
<polygon fill="black" stroke="black" points="546.31,-327.83 536.31,-324.35 541.95,-333.31 546.31,-327.83"/>
</g>
<!-- [root] provider[&quot;registry.terraform.io/hashicorp/aws&quot;] (close)&#45;&gt;[root] aws_instance.foo&#45;2 (expand) -->
<g id="edge30" class="edge">
<title>[root] provider[&quot;registry.terraform.io/hashicorp/aws&quot;] (close)&#45;&gt;[root] aws_instance.foo&#45;2 (expand)</title>
<path fill="none" stroke="black" d="M687.53,-360.94C753.25,-348.67 842.77,-331.96 904.67,-320.41"/>
<polygon fill="black" stroke="black" points="904.94,-323.73 914.13,-318.46 903.66,-316.85 904.94,-323.73"/>
</g>
<!-- [root] provider[&quot;registry.terraform.io/hashicorp/aws&quot;] (close)&#45;&gt;[root] aws_route_table_association.foo (expand) -->
<g id="edge31" class="edge">
<title>[root] provider[&quot;registry.terraform.io/hashicorp/aws&quot;] (close)&#45;&gt;[root] aws_route_table_association.foo (expand)</title>
<path fill="none" stroke="black" d="M538.98,-360.23C502.02,-350.32 454.96,-337.7 415.94,-327.23"/>
<polygon fill="black" stroke="black" points="417.25,-323.69 406.69,-324.48 415.44,-330.45 417.25,-323.69"/>
</g>
<!-- [root] provider[&quot;registry.terraform.io/hashicorp/aws&quot;] (close)&#45;&gt;[root] aws_route_table_association.foo&#45;2 (expand) -->
<g id="edge32" class="edge">
<title>[root] provider[&quot;registry.terraform.io/hashicorp/aws&quot;] (close)&#45;&gt;[root] aws_route_table_association.foo&#45;2 (expand)</title>
<path fill="none" stroke="black" d="M623.75,-359.7C634.89,-351.03 648.56,-340.4 660.69,-330.96"/>
<polygon fill="black" stroke="black" points="662.45,-333.25 668.2,-324.35 658.15,-327.72 662.45,-333.25"/>
</g>
<!-- [root] provider[&quot;registry.terraform.io/hashicorp/aws&quot;] (close)&#45;&gt;[root] aws_route_table_association.foo1 (expand) -->
<g id="edge33" class="edge">
<title>[root] provider[&quot;registry.terraform.io/hashicorp/aws&quot;] (close)&#45;&gt;[root] aws_route_table_association.foo1 (expand)</title>
<path fill="none" stroke="black" d="M493.46,-361.72C423.04,-351.69 328.85,-338.13 236.53,-324.3"/>
<polygon fill="black" stroke="black" points="237.28,-320.72 226.87,-322.7 236.24,-327.64 237.28,-320.72"/>
</g>
<!-- [root] provider[&quot;registry.terraform.io/hashicorp/tls&quot;] (close) -->
<g id="node24" class="node">
<title>[root] provider[&quot;registry.terraform.io/hashicorp/tls&quot;] (close)</title>
<ellipse fill="none" stroke="black" cx="1157.5" cy="-378" rx="221.76" ry="18"/>
<text text-anchor="middle" x="1157.5" y="-374.3" font-family="Times,serif" font-size="14.00">[root] provider[&quot;registry.terraform.io/hashicorp/tls&quot;] (close)</text>
</g>
<!-- [root] provider[&quot;registry.terraform.io/hashicorp/tls&quot;] (close)&#45;&gt;[root] tls_private_key.foo (expand) -->
<g id="edge34" class="edge">
<title>[root] provider[&quot;registry.terraform.io/hashicorp/tls&quot;] (close)&#45;&gt;[root] tls_private_key.foo (expand)</title>
<path fill="none" stroke="black" d="M1169.59,-359.56C1185.37,-336.09 1212.93,-292.57 1229.5,-252 1237.61,-232.15 1243.54,-208.62 1247.35,-190.75"/>
<polygon fill="black" stroke="black" points="1250.93,-191.66 1249.49,-181.17 1244.07,-190.27 1250.93,-191.66"/>
</g>
<!-- [root] root -->
<g id="node25" class="node">
<title>[root] root</title>
<ellipse fill="none" stroke="black" cx="834.5" cy="-450" rx="47.39" ry="18"/>
<text text-anchor="middle" x="834.5" y="-446.3" font-family="Times,serif" font-size="14.00">[root] root</text>
</g>
<!-- [root] root&#45;&gt;[root] provider[&quot;registry.terraform.io/hashicorp/aws&quot;] (close) -->
<g id="edge35" class="edge">
<title>[root] root&#45;&gt;[root] provider[&quot;registry.terraform.io/hashicorp/aws&quot;] (close)</title>
<path fill="none" stroke="black" d="M798.09,-438.06C763.4,-427.64 710.35,-411.7 668.1,-399.01"/>
<polygon fill="black" stroke="black" points="669.19,-395.38 658.61,-395.86 667.18,-402.09 669.19,-395.38"/>
</g>
<!-- [root] root&#45;&gt;[root] provider[&quot;registry.terraform.io/hashicorp/tls&quot;] (close) -->
<g id="edge36" class="edge">
<title>[root] root&#45;&gt;[root] provider[&quot;registry.terraform.io/hashicorp/tls&quot;] (close)</title>
<path fill="none" stroke="black" d="M875.08,-440.21C924.11,-429.58 1007.94,-411.41 1071.57,-397.62"/>
<polygon fill="black" stroke="black" points="1071.96,-400.9 1081,-395.36 1070.48,-394.06 1071.96,-400.9"/>
</g>
</g>
</svg>
